<svg xmlns="http://www.w3.org/2000/svg" width="746" height="334" fill="none"><path fill="url(#a)" d="M77 164h138v6H77z"/><path fill="#141D1F" d="M212 164h319v6H212z"/><path fill="url(#b)" d="M531 164h156v6H531z"/><rect width="80" height="80" y="254" fill="#141D1F" rx="24"/><path fill="#ADFF85" d="M38.091 276c-3.991 0-7.537 2.535-8.773 6.279a9.107 9.107 0 0 0-6.08 4.352 8.974 8.974 0 0 0 1.137 10.63 8.825 8.825 0 0 0 .778 7.351c1.99 3.425 5.994 5.182 9.91 4.365A9.154 9.154 0 0 0 41.91 312c3.992 0 7.538-2.535 8.775-6.278 2.57-.524 4.782-2.109 6.068-4.351a8.957 8.957 0 0 0-1.125-10.632v-.012a8.857 8.857 0 0 0-.778-7.363c-1.99-3.413-5.993-5.17-9.898-4.353a9.197 9.197 0 0 0-6.86-3.011zm0 2.34-.012.012c1.607 0 3.15.547 4.387 1.561-.05.024-.15.086-.222.121l-7.267 4.134a1.164 1.164 0 0 0-.593 1.024v9.703l-3.127-1.78v-8.021c-.002-3.725 3.056-6.748 6.834-6.754zm8.753 2.825a6.858 6.858 0 0 1 5.94 3.382 6.7 6.7 0 0 1 .815 4.51c-.05-.036-.147-.086-.21-.122l-7.265-4.146a1.232 1.232 0 0 0-1.197 0l-8.515 4.853v-3.56l7.03-4.011a6.883 6.883 0 0 1 3.402-.906zm-17.971 3.684v8.521c0 .426.221.804.592 1.023l8.501 4.839-3.139 1.792-7.019-3.998c-3.265-1.868-4.382-5.992-2.495-9.216a6.835 6.835 0 0 1 3.56-2.961zm16.286 2.111 7.031 3.998c3.276 1.866 4.387 5.986 2.496 9.216l.012.012a6.805 6.805 0 0 1-3.558 2.951v-8.523c0-.426-.222-.816-.593-1.023l-8.513-4.853 3.125-1.778zm-5.165 2.937 3.584 2.047v4.084l-3.584 2.047-3.584-2.047v-4.084l3.584-2.047zm5.635 3.218 3.126 1.78v8.009c0 3.73-3.064 6.754-6.834 6.754v-.012a6.874 6.874 0 0 1-4.374-1.561c.05-.024.161-.085.222-.121l7.265-4.132a1.14 1.14 0 0 0 .593-1.024l.002-9.693zm-2.04 5.243v3.56l-7.032 3.999c-3.276 1.854-7.45.756-9.341-2.464h.012a6.618 6.618 0 0 1-.817-4.51c.05.036.15.086.21.122l7.265 4.146c.371.207.827.207 1.197 0l8.505-4.853z"/><rect width="80" height="80" y="127" fill="#141D1F" rx="24"/><path fill="#ADFF85" d="M57.906 161.943a4.426 4.426 0 0 0-.505-3.145 4.281 4.281 0 0 0-2.861-2.026 4.389 4.389 0 0 0-.844-.086h-.015c-2.066 0-3.8 1.482-4.21 3.507a10.43 10.43 0 0 1-1.379 3.406.392.392 0 0 1-.55.115.396.396 0 0 1-.136-.155l-4.288-8.986c-.544-1.143-1.521-2.041-2.735-2.396-2.08-.615-4.225.426-5.108 2.286l-4.43 9.317c-.118.244-.465.236-.567-.008v-.008a4.285 4.285 0 0 0-3.997-2.696c-.567 0-1.127.111-1.663.331-2.207.923-3.192 3.524-2.278 5.731.836 1.994 2.207 3.878 3.989 5.502a.399.399 0 0 1 .094.457L24.99 176.1c-1.01 2.128-.197 4.722 1.9 5.786a4.316 4.316 0 0 0 1.946.465 4.324 4.324 0 0 0 3.894-2.459l1.238-2.594a.382.382 0 0 1 .457-.205c1.505.41 3.019.631 4.509.631 1.679 0 3.334-.252 4.934-.717a.392.392 0 0 1 .465.205l1.222 2.569c.725 1.529 2.238 2.57 3.925 2.578.686 0 1.348-.15 1.97-.465 2.105-1.064 2.91-3.666 1.9-5.802l-1.536-3.232a.397.397 0 0 1 .086-.457c2.98-2.774 5.179-6.408 6.007-10.46zm-26.588 17.263a2.755 2.755 0 0 1-2.483 1.568c-.41 0-.827-.094-1.214-.283-1.355-.67-1.868-2.357-1.213-3.721l1.19-2.499c.102-.22.386-.299.575-.157.252.181.513.354.78.528a20.81 20.81 0 0 0 3.272 1.702.39.39 0 0 1 .213.529l-1.12 2.333zm7.615-3.066c-6.314 0-12.983-4.281-15.19-9.743a2.744 2.744 0 0 1 1.514-3.571 2.794 2.794 0 0 1 1.024-.205c1.088 0 2.113.647 2.546 1.719 1.38 3.421 6.007 6.313 10.106 6.313.63 0 1.26-.063 1.883-.173a.396.396 0 0 1 .426.213l2.065 4.351a.392.392 0 0 1-.244.544 16.227 16.227 0 0 1-4.13.552zm-.899-7.394.954-2.002a.217.217 0 0 1 .386 0l.93 1.955c.063.126-.023.283-.157.307a8.87 8.87 0 0 1-1.199.087 7.5 7.5 0 0 1-.733-.04c-.165-.023-.244-.181-.18-.307zm12.69 11.737a2.758 2.758 0 0 1-2.117.131 2.755 2.755 0 0 1-1.58-1.416l-7.48-15.725c-.15-.316-.599-.316-.74 0l-2.318 4.879a.394.394 0 0 1-.48.205c-1.577-.544-3.075-1.466-4.186-2.578a.383.383 0 0 1-.071-.441l5.013-10.547a2.3 2.3 0 0 1 .78-.93c1.577-1.033 3.421-.386 4.107 1.056l10.287 21.637c.646 1.372.142 3.059-1.214 3.729zm-2.167-14.472a.39.39 0 0 1 .047-.41c1.175-1.506 2.034-3.264 2.404-5.132a2.746 2.746 0 0 1 2.688-2.207c.221 0 .442.024.67.079 1.459.363 2.302 1.876 1.995 3.35-.725 3.453-2.523 6.582-4.974 9.033a.395.395 0 0 1-.639-.102l-2.19-4.611z"/><rect width="115" height="115" x="315.5" y="110.5" fill="#141D1F" rx="23.5"/><rect width="115" height="115" x="315.5" y="110.5" stroke="#141D1F" rx="23.5"/><path fill="#ADFF85" d="M383.537 147h-21.025A10.514 10.514 0 0 0 352 157.512v21.025a10.515 10.515 0 0 0 10.512 10.513h21.025a10.515 10.515 0 0 0 10.513-10.513v-21.025A10.514 10.514 0 0 0 383.537 147zm-15.704 24.115a1.584 1.584 0 0 1 .492 1.124 1.576 1.576 0 0 1-2.723 1.106l-4.205-4.205a1.577 1.577 0 0 1 0-2.23l4.205-4.205a1.576 1.576 0 0 1 2.231 2.23l-3.09 3.09 3.09 3.09zm8.81-10.016-4.205 14.717a1.574 1.574 0 1 1-3.031-.865l4.205-14.717a1.571 1.571 0 0 1 1.968-1.153 1.585 1.585 0 0 1 1.14 1.389c.017.213-.009.427-.077.629zm8.01 8.041-4.205 4.205a1.576 1.576 0 0 1-2.231 0 1.587 1.587 0 0 1-.342-1.719c.08-.191.196-.365.342-.511l3.09-3.09-3.09-3.09a1.587 1.587 0 0 1-.342-1.719 1.593 1.593 0 0 1 .854-.853c.191-.08.396-.12.603-.12a1.576 1.576 0 0 1 1.116.462l4.205 4.205a1.577 1.577 0 0 1 0 2.23z"/><rect width="80" height="80" fill="#141D1F" rx="24"/><path fill="#000" fill-rule="evenodd" d="M34.866 21.767c-5.866.453-10.854.85-11.08.878-.652.142-1.248.567-1.53 1.162l-.256.51.028 12.3.029 12.299.368.765c.227.425 1.644 2.409 3.202 4.42 3.09 4.025 3.316 4.223 4.478 4.365.34.028 2.919-.085 5.668-.255 2.777-.17 7.255-.454 9.918-.595 11.421-.709 10.826-.652 11.506-1.219.822-.68.737.453.794-14.51.028-12.667 0-13.517-.199-13.886-.198-.453-.595-.736-5.81-4.392-3.485-2.466-3.74-2.58-5.299-2.608-.651-.028-5.98.34-11.817.766z" clip-rule="evenodd"/><path fill="#ADFF85" fill-rule="evenodd" d="M34.866 21.767c-5.866.453-10.854.85-11.08.878-.652.142-1.248.567-1.53 1.162l-.256.51.028 12.3.029 12.299.368.765c.227.425 1.644 2.409 3.202 4.42 3.09 4.025 3.316 4.223 4.478 4.365.34.028 2.919-.085 5.668-.255 2.777-.17 7.255-.454 9.918-.595 11.421-.709 10.826-.652 11.506-1.219.822-.68.737.453.794-14.51.028-12.667 0-13.517-.199-13.886-.198-.453-.595-.736-5.81-4.392-3.485-2.466-3.74-2.58-5.299-2.608-.651-.028-5.98.34-11.817.766zm13.178 1.615c.51.227 4.109 2.72 4.619 3.202.142.142.198.284.113.34-.141.142-22.444 1.474-23.096 1.36-.284-.028-.709-.198-.964-.368-1.02-.708-3.542-2.777-3.542-2.919 0-.396-.085-.396 9.834-1.133 1.898-.114 5.044-.34 6.943-.51 4.109-.312 5.328-.312 6.093.028zm7.084 6.405c.17.17.312.481.369.793.028.284.056 5.555.028 11.676-.028 10.485-.056 11.166-.255 11.449-.113.198-.34.397-.538.453-.482.199-23.834 1.53-24.315 1.389a1.544 1.544 0 0 1-.68-.425l-.284-.283-.028-11.336c-.029-7.964 0-11.477.085-11.79.056-.226.255-.51.397-.623.198-.141 1.587-.255 6.348-.538 3.344-.17 8.53-.482 11.477-.68 7.085-.425 7.056-.425 7.396-.085z" clip-rule="evenodd"/><path fill="#ADFF85" fill-rule="evenodd" d="M48.866 33.668c-1.275.085-2.409.199-2.522.284a1.213 1.213 0 0 0-.68.907c-.029.368.085.425 1.36.595l.538.056v5.017c0 2.975-.028 4.93-.113 4.874-.056-.057-1.7-2.607-3.684-5.611-1.984-3.061-3.627-5.555-3.656-5.555-.028-.028-1.303.029-2.862.142-1.899.113-2.947.255-3.146.368-.34.17-.736.794-.736 1.19 0 .256.453.397 1.388.397h.51V50.73l-.822.255c-.595.17-.821.283-.935.538-.17.397-.17.737.029.737.056 0 1.388-.057 2.919-.17 3.004-.17 3.344-.255 3.655-.879.114-.17.199-.368.199-.453 0-.028-.425-.17-.907-.283-.51-.114-1.02-.255-1.134-.255-.198-.057-.198-.426-.198-5.47v-5.413l3.57 5.583c3.741 5.866 4.195 6.546 4.79 6.83.708.368 2.522.113 3.429-.482l.283-.17.029-7.992.028-8.02.623-.113c.737-.142 1.077-.482 1.077-1.077 0-.368-.028-.397-.368-.368-.198 0-1.417.085-2.664.141z" clip-rule="evenodd"/><rect width="80" height="80" x="666" fill="#141D1F" rx="24"/><path fill="#ADFF85" d="M719.52 22h-27C690 22 688 24 688 26.48v27c0 2.52 2 4.52 4.52 4.52h27c2.48 0 4.48-2 4.48-4.48v-27c0-2.52-2-4.52-4.48-4.52zm-8.72 6.6c0-.68.52-1.2 1.2-1.2.68 0 1.2.52 1.2 1.2v16.04c0 .68-.52 1.2-1.2 1.2-.68 0-1.2-.52-1.2-1.2V28.6zm-6-.6c0-.68.52-1.2 1.2-1.2.68 0 1.2.52 1.2 1.2v17.4c0 .68-.52 1.2-1.2 1.2-.68 0-1.2-.52-1.2-1.2V28zm-6 .6c0-.68.52-1.2 1.2-1.2.68 0 1.2.52 1.2 1.2v16.04c0 .68-.52 1.2-1.2 1.2-.68 0-1.2-.52-1.2-1.2V28.6zm-6 2.4c0-.68.52-1.2 1.2-1.2.68 0 1.2.52 1.2 1.2v10.8c0 .68-.52 1.2-1.2 1.2-.68 0-1.2-.52-1.2-1.2V31zm26 18.32c-.2.16-4.64 3.88-12.8 3.88s-12.6-3.72-12.8-3.88c-.52-.44-.56-1.2-.12-1.68.44-.52 1.2-.56 1.68-.12.08 0 4.04 3.28 11.24 3.28 7.28 0 11.2-3.28 11.2-3.32.52-.44 1.28-.36 1.68.12.48.52.4 1.28-.08 1.72zm.4-7.52c0 .68-.52 1.2-1.2 1.2-.68 0-1.2-.52-1.2-1.2V31c0-.68.52-1.2 1.2-1.2.68 0 1.2.52 1.2 1.2v10.8z"/><rect width="80" height="80" x="666" y="127" fill="#141D1F" rx="24"/><path fill="#ADFF85" fill-rule="evenodd" d="M695.593 171.757a3.778 3.778 0 0 1-3.782 3.784 3.78 3.78 0 0 1-3.781-3.784 3.781 3.781 0 0 1 3.781-3.784h3.782v3.784zm1.888 0a3.777 3.777 0 0 1 3.781-3.784 3.778 3.778 0 0 1 3.782 3.784v9.458a3.778 3.778 0 0 1-3.782 3.785 3.778 3.778 0 0 1-3.781-3.785v-9.458zm3.78-15.188a3.778 3.778 0 0 1-3.782-3.785 3.778 3.778 0 0 1 3.782-3.784 3.777 3.777 0 0 1 3.781 3.784v3.785h-3.781zm0 1.918a3.777 3.777 0 0 1 3.781 3.784 3.777 3.777 0 0 1-3.781 3.784h-9.479a3.78 3.78 0 0 1-3.782-3.784 3.781 3.781 0 0 1 3.782-3.784h9.479zm15.148 3.784a3.777 3.777 0 0 1 3.781-3.784 3.778 3.778 0 0 1 3.782 3.784 3.778 3.778 0 0 1-3.782 3.784h-3.781v-3.784zm-1.888 0a3.778 3.778 0 0 1-3.782 3.784 3.777 3.777 0 0 1-3.781-3.784v-9.487a3.777 3.777 0 0 1 3.781-3.784 3.778 3.778 0 0 1 3.782 3.784v9.487zm-3.782 15.16a3.778 3.778 0 0 1 3.782 3.784 3.778 3.778 0 0 1-3.782 3.785 3.778 3.778 0 0 1-3.781-3.785v-3.784h3.781zm0-1.89a3.777 3.777 0 0 1-3.781-3.784 3.777 3.777 0 0 1 3.781-3.784h9.479a3.778 3.778 0 0 1 3.782 3.784 3.778 3.778 0 0 1-3.782 3.784h-9.479z" clip-rule="evenodd"/><rect width="80" height="80" x="666" y="254" fill="#141D1F" rx="24"/><path fill="#ADFF85" d="M706 276c-9.94 0-18 8.033-18 17.943 0 7.928 5.158 14.654 12.31 17.026.899.166 1.229-.389 1.229-.863 0-.428-.016-1.841-.024-3.341-5.008 1.086-6.064-2.117-6.064-2.117-.819-2.074-1.999-2.625-1.999-2.625-1.633-1.114.123-1.091.123-1.091 1.808.127 2.759 1.849 2.759 1.849 1.606 2.743 4.211 1.95 5.239 1.492.161-1.16.628-1.951 1.142-2.4-3.998-.453-8.201-1.992-8.201-8.867 0-1.959.704-3.56 1.855-4.816-.187-.452-.803-2.277.174-4.749 0 0 1.512-.482 4.952 1.84a17.284 17.284 0 0 1 4.505-.604c1.53.007 3.071.206 4.509.604 3.436-2.322 4.945-1.84 4.945-1.84.98 2.472.364 4.297.177 4.749 1.154 1.256 1.852 2.857 1.852 4.816 0 6.891-4.21 8.409-8.219 8.853.646.557 1.221 1.649 1.221 3.323 0 2.401-.021 4.333-.021 4.924 0 .477.324 1.037 1.237.861 7.148-2.375 12.299-9.099 12.299-17.024 0-9.91-8.059-17.943-18-17.943z"/><path stroke="url(#c)" stroke-width="6" d="M77 40h25.944c59.371 0 109.762 50.461 150.674 95.437 11.363 12.492 21.631 20.476 30.592 25.575C291.447 165.13 299.674 167 308 167"/><path stroke="url(#d)" stroke-width="6" d="M77 294h25.944c59.371 0 109.762-50.461 150.674-95.437 11.363-12.492 21.631-20.476 30.592-25.575C291.447 168.87 299.674 167 308 167"/><path stroke="url(#e)" stroke-width="6" d="M669 40h-25.944c-59.371 0-109.762 50.461-150.674 95.437-11.363 12.492-21.631 20.476-30.592 25.575C454.553 165.13 446.326 167 438 167"/><path stroke="url(#f)" stroke-width="6" d="M669 294h-25.944c-59.371 0-109.762-50.461-150.674-95.437-11.363-12.492-21.631-20.476-30.592-25.575C454.553 168.87 446.326 167 438 167"/><defs><linearGradient id="a" x1="82.378" x2="202.95" y1="167" y2="169.467" gradientUnits="userSpaceOnUse"><stop stop-color="#141D1F" stop-opacity="0"/><stop offset="1" stop-color="#141D1F"/></linearGradient><linearGradient id="b" x1="537.079" x2="673.362" y1="167" y2="170.152" gradientUnits="userSpaceOnUse"><stop stop-color="#141D1F"/><stop offset="1" stop-color="#141D1F" stop-opacity="0"/></linearGradient><linearGradient id="c" x1="77" x2="280.804" y1="35" y2="161.105" gradientUnits="userSpaceOnUse"><stop stop-color="#141D1F" stop-opacity="0"/><stop offset="1" stop-color="#141D1F"/></linearGradient><linearGradient id="d" x1="77" x2="280.804" y1="299" y2="172.895" gradientUnits="userSpaceOnUse"><stop stop-color="#141D1F" stop-opacity="0"/><stop offset="1" stop-color="#141D1F"/></linearGradient><linearGradient id="e" x1="669" x2="465.196" y1="35" y2="161.105" gradientUnits="userSpaceOnUse"><stop stop-color="#141D1F" stop-opacity="0"/><stop offset="1" stop-color="#141D1F"/></linearGradient><linearGradient id="f" x1="669" x2="465.196" y1="299" y2="172.895" gradientUnits="userSpaceOnUse"><stop stop-color="#141D1F" stop-opacity="0"/><stop offset="1" stop-color="#141D1F"/></linearGradient></defs></svg>